<svg width="364" height="393" viewBox="0 0 364 393" fill="none" xmlns="http://www.w3.org/2000/svg">
<ellipse cx="182" cy="196.5" rx="182" ry="196.5" fill="#D9D9D9"/>
<rect x="45" y="97.1703" width="274" height="198.659" fill="white"/>
<path d="M88.0075 195.274V199.475H76.3988V195.274H88.0075ZM97.9631 208.187C96.745 208.187 95.6596 207.976 94.7067 207.554C93.7538 207.123 92.9998 206.489 92.4446 205.652C91.8977 204.807 91.6243 203.754 91.6243 202.495C91.6243 201.434 91.819 200.544 92.2085 199.823C92.5979 199.102 93.1282 198.522 93.7994 198.083C94.4705 197.643 95.2328 197.312 96.0863 197.088C96.948 196.865 97.8512 196.707 98.7958 196.616C99.9061 196.5 100.801 196.392 101.48 196.293C102.16 196.185 102.653 196.028 102.96 195.821C103.266 195.613 103.419 195.307 103.419 194.901V194.826C103.419 194.039 103.171 193.43 102.674 192.999C102.185 192.568 101.489 192.353 100.586 192.353C99.6327 192.353 98.8745 192.564 98.3111 192.987C97.7476 193.401 97.3748 193.923 97.1925 194.553L92.2955 194.155C92.544 192.995 93.0329 191.992 93.7621 191.147C94.4912 190.294 95.4317 189.639 96.5835 189.183C97.7435 188.719 99.0858 188.487 100.61 188.487C101.671 188.487 102.686 188.612 103.656 188.86C104.633 189.109 105.499 189.494 106.253 190.016C107.016 190.538 107.616 191.209 108.055 192.03C108.495 192.842 108.714 193.815 108.714 194.951V207.827H103.693V205.18H103.544C103.237 205.776 102.827 206.302 102.313 206.758C101.799 207.206 101.182 207.558 100.461 207.815C99.7404 208.063 98.9077 208.187 97.9631 208.187ZM99.4794 204.533C100.258 204.533 100.946 204.38 101.543 204.073C102.139 203.759 102.607 203.336 102.947 202.806C103.287 202.275 103.457 201.675 103.457 201.003V198.978C103.291 199.085 103.063 199.185 102.773 199.276C102.491 199.359 102.172 199.437 101.816 199.512C101.46 199.578 101.103 199.64 100.747 199.698C100.391 199.748 100.068 199.794 99.7777 199.835C99.1563 199.926 98.6135 200.071 98.1495 200.27C97.6855 200.469 97.325 200.738 97.0682 201.078C96.8113 201.409 96.6829 201.824 96.6829 202.321C96.6829 203.042 96.9439 203.593 97.4659 203.974C97.9962 204.347 98.6674 204.533 99.4794 204.533ZM132.009 181.179L123.806 211.655H119.245L127.448 181.179H132.009ZM145.518 197.502H149.858V200.687H153.078V197.502H157.348V210.592H145.518V197.502ZM149.858 204.047V207.092H153.078V204.047H149.858ZM162.388 197.222H165.888V199.637C165.888 201.224 165.666 202.764 165.223 204.257C164.78 205.727 164.056 207.034 163.053 208.177C162.073 209.344 160.778 210.242 159.168 210.872L156.893 207.407C158.2 206.87 159.25 206.194 160.043 205.377C160.86 204.537 161.455 203.627 161.828 202.647C162.201 201.644 162.388 200.64 162.388 199.637V197.222ZM163.438 197.222H167.008V199.637C167.008 200.757 167.183 201.83 167.533 202.857C167.906 203.86 168.49 204.759 169.283 205.552C170.1 206.345 171.161 206.964 172.468 207.407L170.158 210.872C168.525 210.289 167.218 209.437 166.238 208.317C165.258 207.197 164.546 205.902 164.103 204.432C163.66 202.939 163.438 201.34 163.438 199.637V197.222ZM158.363 185.462H166.483V189.207H158.363V185.462ZM150.908 179.722C152.541 179.722 154 180.049 155.283 180.702C156.59 181.355 157.616 182.254 158.363 183.397C159.11 184.54 159.483 185.859 159.483 187.352C159.483 188.845 159.11 190.175 158.363 191.342C157.616 192.485 156.59 193.384 155.283 194.037C154 194.69 152.541 195.017 150.908 195.017C149.298 195.017 147.84 194.69 146.533 194.037C145.25 193.384 144.235 192.485 143.488 191.342C142.741 190.175 142.368 188.845 142.368 187.352C142.368 185.859 142.741 184.54 143.488 183.397C144.235 182.254 145.25 181.355 146.533 180.702C147.84 180.049 149.298 179.722 150.908 179.722ZM150.908 183.537C150.115 183.537 149.403 183.689 148.773 183.992C148.166 184.295 147.688 184.739 147.338 185.322C146.988 185.882 146.813 186.559 146.813 187.352C146.813 188.145 146.988 188.834 147.338 189.417C147.688 190 148.166 190.444 148.773 190.747C149.403 191.05 150.115 191.202 150.908 191.202C151.701 191.202 152.401 191.05 153.008 190.747C153.638 190.444 154.128 190 154.478 189.417C154.828 188.834 155.003 188.145 155.003 187.352C155.003 186.559 154.828 185.882 154.478 185.322C154.128 184.739 153.638 184.295 153.008 183.992C152.401 183.689 151.701 183.537 150.908 183.537ZM164.418 178.532H169.108V195.682H164.418V178.532ZM177.785 187.247H200.255V190.957H177.785V187.247ZM174.18 194.317H203.51V198.027H174.18V194.317ZM177.785 179.652H182.44V189.102H177.785V179.652ZM177.505 206.497H200.43V210.242H177.505V206.497ZM177.505 200.582H182.16V207.512H177.505V200.582ZM212.81 204.347L212.673 205.714C212.565 206.808 212.358 207.897 212.052 208.983C211.753 210.077 211.439 211.067 211.107 211.953C210.784 212.84 210.523 213.536 210.324 214.041H206.894C207.018 213.553 207.188 212.869 207.403 211.991C207.619 211.121 207.822 210.143 208.012 209.057C208.203 207.972 208.323 206.866 208.373 205.739L208.435 204.347H212.81ZM232.557 180.737C234.214 180.737 235.672 181.215 236.932 182.172C238.216 183.105 239.219 184.447 239.942 186.197C240.689 187.924 241.062 189.965 241.062 192.322C241.062 194.702 240.689 196.767 239.942 198.517C239.219 200.244 238.216 201.585 236.932 202.542C235.672 203.475 234.214 203.942 232.557 203.942C230.901 203.942 229.431 203.475 228.147 202.542C226.864 201.585 225.849 200.244 225.102 198.517C224.379 196.767 224.017 194.702 224.017 192.322C224.017 189.965 224.379 187.924 225.102 186.197C225.849 184.447 226.864 183.105 228.147 182.172C229.431 181.215 230.901 180.737 232.557 180.737ZM232.557 184.972C231.764 184.972 231.052 185.252 230.422 185.812C229.816 186.372 229.337 187.2 228.987 188.297C228.661 189.37 228.497 190.712 228.497 192.322C228.497 193.909 228.661 195.262 228.987 196.382C229.337 197.479 229.816 198.307 230.422 198.867C231.052 199.427 231.764 199.707 232.557 199.707C233.351 199.707 234.051 199.427 234.657 198.867C235.264 198.307 235.731 197.479 236.057 196.382C236.407 195.262 236.582 193.909 236.582 192.322C236.582 190.712 236.407 189.37 236.057 188.297C235.731 187.2 235.264 186.372 234.657 185.812C234.051 185.252 233.351 184.972 232.557 184.972ZM244.562 178.532H249.252V210.942H244.562V178.532ZM248.237 190.747H253.942V194.562H248.237V190.747ZM278.335 178.497H282.99V202.052H278.335V178.497ZM261.29 206.637H283.83V210.382H261.29V206.637ZM261.29 199.357H265.945V208.352H261.29V199.357ZM257.895 180.912H262.55V194.387H257.895V180.912ZM257.895 192.637H260.695C262.351 192.637 263.996 192.602 265.63 192.532C267.286 192.439 268.955 192.287 270.635 192.077C272.315 191.867 274.018 191.587 275.745 191.237L276.235 195.017C274.485 195.39 272.735 195.682 270.985 195.892C269.258 196.102 267.531 196.254 265.805 196.347C264.101 196.417 262.398 196.452 260.695 196.452H257.895V192.637Z" fill="black"/>
</svg>
